<mxfile host="Electron" modified="2024-04-13T20:38:27.551Z" agent="Mozilla/5.0 (Windows NT 10.0; Win64; x64) AppleWebKit/537.36 (KHTML, like Gecko) draw.io/21.2.8 Chrome/112.0.5615.165 Electron/24.2.0 Safari/537.36" etag="7MjVAspBBUV3fuMMkHjc" version="21.2.8" type="device">
  <diagram name="Page-1" id="099fd60b-425b-db50-ffb0-6b813814b670">
    <mxGraphModel dx="1418" dy="820" grid="1" gridSize="10" guides="1" tooltips="1" connect="1" arrows="1" fold="1" page="1" pageScale="1" pageWidth="1169" pageHeight="827" background="none" math="0" shadow="0">
      <root>
        <mxCell id="0" />
        <mxCell id="1" parent="0" />
        <mxCell id="CVpWdhko3NHj1sSTFfam-52" value="" style="group;rotation=0;" parent="1" vertex="1" connectable="0">
          <mxGeometry x="360" y="520" width="200" height="180" as="geometry" />
        </mxCell>
        <mxCell id="CVpWdhko3NHj1sSTFfam-5" value="" style="rounded=0;whiteSpace=wrap;html=1;rotation=0;" parent="CVpWdhko3NHj1sSTFfam-52" vertex="1">
          <mxGeometry width="200" height="180" as="geometry" />
        </mxCell>
        <mxCell id="CVpWdhko3NHj1sSTFfam-8" value="IN4" style="text;html=1;strokeColor=none;fillColor=none;align=right;verticalAlign=middle;whiteSpace=wrap;rounded=0;rotation=0;" parent="CVpWdhko3NHj1sSTFfam-52" vertex="1">
          <mxGeometry x="140" width="60" height="30" as="geometry" />
        </mxCell>
        <mxCell id="CVpWdhko3NHj1sSTFfam-9" value="IN3" style="text;html=1;strokeColor=none;fillColor=none;align=right;verticalAlign=middle;whiteSpace=wrap;rounded=0;rotation=0;" parent="CVpWdhko3NHj1sSTFfam-52" vertex="1">
          <mxGeometry x="140" y="30" width="60" height="30" as="geometry" />
        </mxCell>
        <mxCell id="CVpWdhko3NHj1sSTFfam-10" value="GND" style="text;html=1;strokeColor=none;fillColor=none;align=right;verticalAlign=middle;whiteSpace=wrap;rounded=0;rotation=0;" parent="CVpWdhko3NHj1sSTFfam-52" vertex="1">
          <mxGeometry x="140" y="60" width="60" height="30" as="geometry" />
        </mxCell>
        <mxCell id="CVpWdhko3NHj1sSTFfam-11" value="VCC" style="text;html=1;strokeColor=none;fillColor=none;align=right;verticalAlign=middle;whiteSpace=wrap;rounded=0;rotation=0;" parent="CVpWdhko3NHj1sSTFfam-52" vertex="1">
          <mxGeometry x="140" y="90" width="60" height="30" as="geometry" />
        </mxCell>
        <mxCell id="CVpWdhko3NHj1sSTFfam-12" value="IN2" style="text;html=1;strokeColor=none;fillColor=none;align=right;verticalAlign=middle;whiteSpace=wrap;rounded=0;rotation=0;" parent="CVpWdhko3NHj1sSTFfam-52" vertex="1">
          <mxGeometry x="140" y="120" width="60" height="30" as="geometry" />
        </mxCell>
        <mxCell id="CVpWdhko3NHj1sSTFfam-13" value="IN1" style="text;html=1;strokeColor=none;fillColor=none;align=right;verticalAlign=middle;whiteSpace=wrap;rounded=0;rotation=0;" parent="CVpWdhko3NHj1sSTFfam-52" vertex="1">
          <mxGeometry x="140" y="150" width="60" height="30" as="geometry" />
        </mxCell>
        <mxCell id="CVpWdhko3NHj1sSTFfam-14" value="EEP" style="text;html=1;strokeColor=none;fillColor=none;align=left;verticalAlign=middle;whiteSpace=wrap;rounded=0;rotation=0;" parent="CVpWdhko3NHj1sSTFfam-52" vertex="1">
          <mxGeometry width="60" height="30" as="geometry" />
        </mxCell>
        <mxCell id="CVpWdhko3NHj1sSTFfam-15" value="OUT1" style="text;html=1;strokeColor=none;fillColor=none;align=left;verticalAlign=middle;whiteSpace=wrap;rounded=0;rotation=0;" parent="CVpWdhko3NHj1sSTFfam-52" vertex="1">
          <mxGeometry y="30" width="60" height="30" as="geometry" />
        </mxCell>
        <mxCell id="CVpWdhko3NHj1sSTFfam-16" value="OUT2" style="text;html=1;strokeColor=none;fillColor=none;align=left;verticalAlign=middle;whiteSpace=wrap;rounded=0;rotation=0;" parent="CVpWdhko3NHj1sSTFfam-52" vertex="1">
          <mxGeometry y="60" width="60" height="30" as="geometry" />
        </mxCell>
        <mxCell id="CVpWdhko3NHj1sSTFfam-17" value="OUT3" style="text;html=1;strokeColor=none;fillColor=none;align=left;verticalAlign=middle;whiteSpace=wrap;rounded=0;rotation=0;" parent="CVpWdhko3NHj1sSTFfam-52" vertex="1">
          <mxGeometry y="90" width="60" height="30" as="geometry" />
        </mxCell>
        <mxCell id="CVpWdhko3NHj1sSTFfam-18" value="OUT4" style="text;html=1;strokeColor=none;fillColor=none;align=left;verticalAlign=middle;whiteSpace=wrap;rounded=0;rotation=0;" parent="CVpWdhko3NHj1sSTFfam-52" vertex="1">
          <mxGeometry y="120" width="60" height="30" as="geometry" />
        </mxCell>
        <mxCell id="CVpWdhko3NHj1sSTFfam-19" value="ULT" style="text;html=1;strokeColor=none;fillColor=none;align=left;verticalAlign=middle;whiteSpace=wrap;rounded=0;rotation=0;" parent="CVpWdhko3NHj1sSTFfam-52" vertex="1">
          <mxGeometry y="150" width="60" height="30" as="geometry" />
        </mxCell>
        <mxCell id="CVpWdhko3NHj1sSTFfam-44" value="DRV8833" style="text;html=1;strokeColor=none;fillColor=none;align=center;verticalAlign=middle;whiteSpace=wrap;rounded=0;rotation=0;" parent="CVpWdhko3NHj1sSTFfam-52" vertex="1">
          <mxGeometry x="70" y="75" width="60" height="30" as="geometry" />
        </mxCell>
        <mxCell id="CVpWdhko3NHj1sSTFfam-53" value="" style="group;direction=west;movable=1;resizable=1;rotatable=1;deletable=1;editable=1;locked=0;connectable=1;flipH=0;rotation=90;" parent="1" vertex="1" connectable="0">
          <mxGeometry x="100" y="260" width="320" height="120" as="geometry" />
        </mxCell>
        <mxCell id="CVpWdhko3NHj1sSTFfam-45" value="" style="rounded=0;whiteSpace=wrap;html=1;direction=west;movable=0;resizable=0;rotatable=0;deletable=0;editable=0;locked=1;connectable=0;rotation=90;" parent="CVpWdhko3NHj1sSTFfam-53" vertex="1">
          <mxGeometry width="320" height="120" as="geometry" />
        </mxCell>
        <mxCell id="uVXeTHRo1ylN-m3MdOiX-53" style="edgeStyle=orthogonalEdgeStyle;rounded=0;orthogonalLoop=1;jettySize=auto;html=1;exitX=1;exitY=0.5;exitDx=0;exitDy=0;endArrow=none;endFill=0;jumpStyle=none;" parent="CVpWdhko3NHj1sSTFfam-53" source="CVpWdhko3NHj1sSTFfam-46" edge="1">
          <mxGeometry relative="1" as="geometry">
            <mxPoint x="840" y="-110" as="targetPoint" />
            <Array as="points">
              <mxPoint x="205" y="-110" />
              <mxPoint x="230" y="-110" />
            </Array>
          </mxGeometry>
        </mxCell>
        <mxCell id="CVpWdhko3NHj1sSTFfam-46" value="SDA" style="text;html=1;strokeColor=none;fillColor=none;align=left;verticalAlign=middle;whiteSpace=wrap;rounded=0;direction=west;movable=1;resizable=1;rotatable=1;deletable=1;editable=1;locked=0;connectable=1;rotation=90;" parent="CVpWdhko3NHj1sSTFfam-53" vertex="1">
          <mxGeometry x="175" y="-85" width="60" height="30" as="geometry" />
        </mxCell>
        <mxCell id="CVpWdhko3NHj1sSTFfam-47" value="SCL" style="text;html=1;strokeColor=none;fillColor=none;align=left;verticalAlign=middle;whiteSpace=wrap;rounded=0;direction=west;movable=1;resizable=1;rotatable=1;deletable=1;editable=1;locked=0;connectable=1;rotation=90;" parent="CVpWdhko3NHj1sSTFfam-53" vertex="1">
          <mxGeometry x="145" y="-85" width="60" height="30" as="geometry" />
        </mxCell>
        <mxCell id="CVpWdhko3NHj1sSTFfam-48" value="VCC" style="text;html=1;strokeColor=none;fillColor=none;align=left;verticalAlign=middle;whiteSpace=wrap;rounded=0;direction=west;movable=0;resizable=0;rotatable=0;deletable=0;editable=0;locked=1;connectable=0;rotation=90;" parent="CVpWdhko3NHj1sSTFfam-53" vertex="1">
          <mxGeometry x="115" y="-85" width="60" height="30" as="geometry" />
        </mxCell>
        <mxCell id="uVXeTHRo1ylN-m3MdOiX-47" style="edgeStyle=orthogonalEdgeStyle;rounded=0;orthogonalLoop=1;jettySize=auto;html=1;endArrow=none;endFill=0;" parent="CVpWdhko3NHj1sSTFfam-53" source="CVpWdhko3NHj1sSTFfam-49" edge="1">
          <mxGeometry relative="1" as="geometry">
            <mxPoint x="300" y="-130" as="targetPoint" />
            <Array as="points">
              <mxPoint x="115" y="-130" />
            </Array>
          </mxGeometry>
        </mxCell>
        <mxCell id="CVpWdhko3NHj1sSTFfam-49" value="GND" style="text;html=1;strokeColor=none;fillColor=none;align=left;verticalAlign=middle;whiteSpace=wrap;rounded=0;direction=west;movable=1;resizable=1;rotatable=1;deletable=1;editable=1;locked=0;connectable=1;rotation=90;" parent="CVpWdhko3NHj1sSTFfam-53" vertex="1">
          <mxGeometry x="85" y="-85" width="60" height="30" as="geometry" />
        </mxCell>
        <mxCell id="CVpWdhko3NHj1sSTFfam-51" value="" style="rounded=0;whiteSpace=wrap;html=1;direction=west;movable=0;resizable=0;rotatable=0;deletable=0;editable=0;locked=1;connectable=0;rotation=90;" parent="CVpWdhko3NHj1sSTFfam-53" vertex="1">
          <mxGeometry x="43" y="10" width="235" height="100" as="geometry" />
        </mxCell>
        <mxCell id="CVpWdhko3NHj1sSTFfam-50" value="OLED12832" style="text;html=1;strokeColor=none;fillColor=none;align=center;verticalAlign=middle;whiteSpace=wrap;rounded=0;direction=west;movable=0;resizable=0;rotatable=0;deletable=0;editable=0;locked=1;connectable=0;rotation=90;" parent="CVpWdhko3NHj1sSTFfam-53" vertex="1">
          <mxGeometry x="120" y="65" width="80" height="30" as="geometry" />
        </mxCell>
        <mxCell id="uVXeTHRo1ylN-m3MdOiX-15" value="" style="group;rotation=-90;" parent="1" vertex="1" connectable="0">
          <mxGeometry x="395" y="250" width="170" height="240" as="geometry" />
        </mxCell>
        <mxCell id="uVXeTHRo1ylN-m3MdOiX-1" value="" style="rounded=0;whiteSpace=wrap;html=1;rotation=-90;" parent="uVXeTHRo1ylN-m3MdOiX-15" vertex="1">
          <mxGeometry width="170" height="240" as="geometry" />
        </mxCell>
        <mxCell id="uVXeTHRo1ylN-m3MdOiX-2" value="INT" style="text;html=1;strokeColor=none;fillColor=none;align=right;verticalAlign=middle;whiteSpace=wrap;rounded=0;rotation=-90;" parent="uVXeTHRo1ylN-m3MdOiX-15" vertex="1">
          <mxGeometry x="-45" y="45" width="51" height="30" as="geometry" />
        </mxCell>
        <mxCell id="uVXeTHRo1ylN-m3MdOiX-3" value="ADO" style="text;html=1;strokeColor=none;fillColor=none;align=right;verticalAlign=middle;whiteSpace=wrap;rounded=0;rotation=-90;" parent="uVXeTHRo1ylN-m3MdOiX-15" vertex="1">
          <mxGeometry x="-15" y="45" width="51" height="30" as="geometry" />
        </mxCell>
        <mxCell id="uVXeTHRo1ylN-m3MdOiX-4" value="XCL" style="text;html=1;strokeColor=none;fillColor=none;align=right;verticalAlign=middle;whiteSpace=wrap;rounded=0;rotation=-90;" parent="uVXeTHRo1ylN-m3MdOiX-15" vertex="1">
          <mxGeometry x="15" y="46" width="51" height="30" as="geometry" />
        </mxCell>
        <mxCell id="uVXeTHRo1ylN-m3MdOiX-5" value="XDA" style="text;html=1;strokeColor=none;fillColor=none;align=right;verticalAlign=middle;whiteSpace=wrap;rounded=0;rotation=-90;" parent="uVXeTHRo1ylN-m3MdOiX-15" vertex="1">
          <mxGeometry x="45" y="46" width="51" height="30" as="geometry" />
        </mxCell>
        <mxCell id="uVXeTHRo1ylN-m3MdOiX-6" value="SDA" style="text;html=1;strokeColor=none;fillColor=none;align=right;verticalAlign=middle;whiteSpace=wrap;rounded=0;rotation=-90;" parent="uVXeTHRo1ylN-m3MdOiX-15" vertex="1">
          <mxGeometry x="75" y="46" width="51" height="30" as="geometry" />
        </mxCell>
        <mxCell id="uVXeTHRo1ylN-m3MdOiX-7" value="SCL" style="text;html=1;strokeColor=none;fillColor=none;align=right;verticalAlign=middle;whiteSpace=wrap;rounded=0;rotation=-90;" parent="uVXeTHRo1ylN-m3MdOiX-15" vertex="1">
          <mxGeometry x="105" y="46" width="51" height="30" as="geometry" />
        </mxCell>
        <mxCell id="uVXeTHRo1ylN-m3MdOiX-8" value="GND" style="text;html=1;strokeColor=none;fillColor=none;align=right;verticalAlign=middle;whiteSpace=wrap;rounded=0;rotation=-90;" parent="uVXeTHRo1ylN-m3MdOiX-15" vertex="1">
          <mxGeometry x="135" y="46" width="51" height="30" as="geometry" />
        </mxCell>
        <mxCell id="uVXeTHRo1ylN-m3MdOiX-9" value="VCC" style="text;html=1;strokeColor=none;fillColor=none;align=right;verticalAlign=middle;whiteSpace=wrap;rounded=0;rotation=-90;" parent="uVXeTHRo1ylN-m3MdOiX-15" vertex="1">
          <mxGeometry x="165" y="46" width="51" height="30" as="geometry" />
        </mxCell>
        <mxCell id="uVXeTHRo1ylN-m3MdOiX-10" value="MPU6050" style="text;html=1;strokeColor=none;fillColor=none;align=center;verticalAlign=middle;whiteSpace=wrap;rounded=0;rotation=-90;" parent="uVXeTHRo1ylN-m3MdOiX-15" vertex="1">
          <mxGeometry x="5" y="114" width="51" height="30" as="geometry" />
        </mxCell>
        <mxCell id="uVXeTHRo1ylN-m3MdOiX-11" value="" style="endArrow=classic;html=1;rounded=0;" parent="uVXeTHRo1ylN-m3MdOiX-15" edge="1">
          <mxGeometry width="50" height="50" relative="1" as="geometry">
            <mxPoint x="80" y="120" as="sourcePoint" />
            <mxPoint x="120" y="120" as="targetPoint" />
          </mxGeometry>
        </mxCell>
        <mxCell id="uVXeTHRo1ylN-m3MdOiX-12" value="" style="endArrow=classic;html=1;rounded=0;" parent="uVXeTHRo1ylN-m3MdOiX-15" edge="1">
          <mxGeometry width="50" height="50" relative="1" as="geometry">
            <mxPoint x="80" y="120" as="sourcePoint" />
            <mxPoint x="80" y="154" as="targetPoint" />
          </mxGeometry>
        </mxCell>
        <mxCell id="uVXeTHRo1ylN-m3MdOiX-13" value="X" style="text;html=1;strokeColor=none;fillColor=none;align=center;verticalAlign=middle;whiteSpace=wrap;rounded=0;rotation=-90;" parent="uVXeTHRo1ylN-m3MdOiX-15" vertex="1">
          <mxGeometry x="82" y="136" width="17" height="20" as="geometry" />
        </mxCell>
        <mxCell id="uVXeTHRo1ylN-m3MdOiX-14" value="Y" style="text;html=1;strokeColor=none;fillColor=none;align=center;verticalAlign=middle;whiteSpace=wrap;rounded=0;rotation=-90;" parent="uVXeTHRo1ylN-m3MdOiX-15" vertex="1">
          <mxGeometry x="102" y="119" width="17" height="20" as="geometry" />
        </mxCell>
        <mxCell id="uVXeTHRo1ylN-m3MdOiX-17" value="" style="group" parent="1" vertex="1" connectable="0">
          <mxGeometry x="640" y="160" width="280" height="560" as="geometry" />
        </mxCell>
        <mxCell id="CVpWdhko3NHj1sSTFfam-1" value="" style="rounded=0;whiteSpace=wrap;html=1;" parent="uVXeTHRo1ylN-m3MdOiX-17" vertex="1">
          <mxGeometry width="280" height="560" as="geometry" />
        </mxCell>
        <mxCell id="CVpWdhko3NHj1sSTFfam-54" value="PA0/TIM2_CH1" style="text;html=1;strokeColor=none;fillColor=none;align=right;verticalAlign=middle;whiteSpace=wrap;rounded=0;" parent="uVXeTHRo1ylN-m3MdOiX-17" vertex="1">
          <mxGeometry x="190" y="440" width="90" height="30" as="geometry" />
        </mxCell>
        <mxCell id="CVpWdhko3NHj1sSTFfam-55" value="PA1/TIM2_CH2" style="text;html=1;strokeColor=none;fillColor=none;align=right;verticalAlign=middle;whiteSpace=wrap;rounded=0;" parent="uVXeTHRo1ylN-m3MdOiX-17" vertex="1">
          <mxGeometry x="190" y="410" width="90" height="30" as="geometry" />
        </mxCell>
        <mxCell id="CVpWdhko3NHj1sSTFfam-56" value="PA2/TIM2_CH3" style="text;html=1;strokeColor=none;fillColor=none;align=right;verticalAlign=middle;whiteSpace=wrap;rounded=0;" parent="uVXeTHRo1ylN-m3MdOiX-17" vertex="1">
          <mxGeometry x="190" y="380" width="90" height="30" as="geometry" />
        </mxCell>
        <mxCell id="CVpWdhko3NHj1sSTFfam-57" value="PA3/TIM2_CH4" style="text;html=1;strokeColor=none;fillColor=none;align=right;verticalAlign=middle;whiteSpace=wrap;rounded=0;" parent="uVXeTHRo1ylN-m3MdOiX-17" vertex="1">
          <mxGeometry x="190" y="350" width="90" height="30" as="geometry" />
        </mxCell>
        <mxCell id="CVpWdhko3NHj1sSTFfam-58" value="PB7/I2C1_SDA" style="text;html=1;strokeColor=none;fillColor=none;align=left;verticalAlign=middle;whiteSpace=wrap;rounded=0;" parent="uVXeTHRo1ylN-m3MdOiX-17" vertex="1">
          <mxGeometry y="410" width="90" height="30" as="geometry" />
        </mxCell>
        <mxCell id="CVpWdhko3NHj1sSTFfam-59" value="PB6/I2C1_SCL" style="text;html=1;strokeColor=none;fillColor=none;align=left;verticalAlign=middle;whiteSpace=wrap;rounded=0;" parent="uVXeTHRo1ylN-m3MdOiX-17" vertex="1">
          <mxGeometry y="380" width="90" height="30" as="geometry" />
        </mxCell>
        <mxCell id="uVXeTHRo1ylN-m3MdOiX-55" style="edgeStyle=orthogonalEdgeStyle;rounded=0;orthogonalLoop=1;jettySize=auto;html=1;endArrow=none;endFill=0;" parent="uVXeTHRo1ylN-m3MdOiX-17" source="CVpWdhko3NHj1sSTFfam-60" edge="1">
          <mxGeometry relative="1" as="geometry">
            <mxPoint x="300" y="-10" as="targetPoint" />
          </mxGeometry>
        </mxCell>
        <mxCell id="CVpWdhko3NHj1sSTFfam-60" value="PB11/I2C2_SDA" style="text;html=1;strokeColor=none;fillColor=none;align=right;verticalAlign=middle;whiteSpace=wrap;rounded=0;" parent="uVXeTHRo1ylN-m3MdOiX-17" vertex="1">
          <mxGeometry x="190" y="150" width="90" height="30" as="geometry" />
        </mxCell>
        <mxCell id="CVpWdhko3NHj1sSTFfam-61" value="PB10/I2C2_SCL" style="text;html=1;strokeColor=none;fillColor=none;align=right;verticalAlign=middle;whiteSpace=wrap;rounded=0;" parent="uVXeTHRo1ylN-m3MdOiX-17" vertex="1">
          <mxGeometry x="190" y="180" width="90" height="30" as="geometry" />
        </mxCell>
        <mxCell id="CVpWdhko3NHj1sSTFfam-62" value="PB15/EXTI15" style="text;html=1;strokeColor=none;fillColor=none;align=left;verticalAlign=middle;whiteSpace=wrap;rounded=0;" parent="uVXeTHRo1ylN-m3MdOiX-17" vertex="1">
          <mxGeometry y="120" width="90" height="30" as="geometry" />
        </mxCell>
        <mxCell id="CVpWdhko3NHj1sSTFfam-63" value="PB14/EXTI14" style="text;html=1;strokeColor=none;fillColor=none;align=left;verticalAlign=middle;whiteSpace=wrap;rounded=0;" parent="uVXeTHRo1ylN-m3MdOiX-17" vertex="1">
          <mxGeometry y="90" width="90" height="30" as="geometry" />
        </mxCell>
        <mxCell id="CVpWdhko3NHj1sSTFfam-64" value="PB13/EXTI13" style="text;html=1;strokeColor=none;fillColor=none;align=left;verticalAlign=middle;whiteSpace=wrap;rounded=0;" parent="uVXeTHRo1ylN-m3MdOiX-17" vertex="1">
          <mxGeometry y="60" width="90" height="30" as="geometry" />
        </mxCell>
        <mxCell id="CVpWdhko3NHj1sSTFfam-65" value="PB12/EXTI12" style="text;html=1;strokeColor=none;fillColor=none;align=left;verticalAlign=middle;whiteSpace=wrap;rounded=0;" parent="uVXeTHRo1ylN-m3MdOiX-17" vertex="1">
          <mxGeometry y="30" width="90" height="30" as="geometry" />
        </mxCell>
        <mxCell id="uVXeTHRo1ylN-m3MdOiX-18" value="3.3V" style="text;html=1;strokeColor=none;fillColor=none;align=left;verticalAlign=middle;whiteSpace=wrap;rounded=0;" parent="uVXeTHRo1ylN-m3MdOiX-17" vertex="1">
          <mxGeometry y="520" width="60" height="30" as="geometry" />
        </mxCell>
        <mxCell id="uVXeTHRo1ylN-m3MdOiX-34" value="GND" style="text;html=1;strokeColor=none;fillColor=none;align=left;verticalAlign=middle;whiteSpace=wrap;rounded=0;" parent="uVXeTHRo1ylN-m3MdOiX-17" vertex="1">
          <mxGeometry y="490" width="60" height="30" as="geometry" />
        </mxCell>
        <mxCell id="uVXeTHRo1ylN-m3MdOiX-36" value="5V" style="text;html=1;strokeColor=none;fillColor=none;align=left;verticalAlign=middle;whiteSpace=wrap;rounded=0;" parent="uVXeTHRo1ylN-m3MdOiX-17" vertex="1">
          <mxGeometry y="460" width="60" height="30" as="geometry" />
        </mxCell>
        <mxCell id="uVXeTHRo1ylN-m3MdOiX-41" value="" style="group" parent="1" vertex="1" connectable="0">
          <mxGeometry x="200" y="500" width="80" height="80" as="geometry" />
        </mxCell>
        <mxCell id="uVXeTHRo1ylN-m3MdOiX-37" value="" style="rounded=0;whiteSpace=wrap;html=1;container=0;" parent="uVXeTHRo1ylN-m3MdOiX-41" vertex="1">
          <mxGeometry width="80" height="80" as="geometry" />
        </mxCell>
        <mxCell id="uVXeTHRo1ylN-m3MdOiX-38" value="" style="ellipse;whiteSpace=wrap;html=1;aspect=fixed;container=0;" parent="uVXeTHRo1ylN-m3MdOiX-41" vertex="1">
          <mxGeometry x="16.25" y="16.25" width="47.5" height="47.5" as="geometry" />
        </mxCell>
        <mxCell id="uVXeTHRo1ylN-m3MdOiX-40" value="K1" style="text;html=1;strokeColor=none;fillColor=none;align=center;verticalAlign=middle;whiteSpace=wrap;rounded=0;container=0;" parent="uVXeTHRo1ylN-m3MdOiX-41" vertex="1">
          <mxGeometry x="10" y="25" width="60" height="30" as="geometry" />
        </mxCell>
        <mxCell id="uVXeTHRo1ylN-m3MdOiX-42" value="" style="group" parent="1" vertex="1" connectable="0">
          <mxGeometry x="200" y="600" width="80" height="80" as="geometry" />
        </mxCell>
        <mxCell id="uVXeTHRo1ylN-m3MdOiX-43" value="" style="rounded=0;whiteSpace=wrap;html=1;container=0;" parent="uVXeTHRo1ylN-m3MdOiX-42" vertex="1">
          <mxGeometry width="80" height="80" as="geometry" />
        </mxCell>
        <mxCell id="uVXeTHRo1ylN-m3MdOiX-44" value="" style="ellipse;whiteSpace=wrap;html=1;aspect=fixed;container=0;" parent="uVXeTHRo1ylN-m3MdOiX-42" vertex="1">
          <mxGeometry x="16.25" y="16.25" width="47.5" height="47.5" as="geometry" />
        </mxCell>
        <mxCell id="uVXeTHRo1ylN-m3MdOiX-45" value="K2" style="text;html=1;strokeColor=none;fillColor=none;align=center;verticalAlign=middle;whiteSpace=wrap;rounded=0;container=0;" parent="uVXeTHRo1ylN-m3MdOiX-42" vertex="1">
          <mxGeometry x="10" y="25" width="60" height="30" as="geometry" />
        </mxCell>
        <mxCell id="uVXeTHRo1ylN-m3MdOiX-56" style="edgeStyle=orthogonalEdgeStyle;rounded=0;orthogonalLoop=1;jettySize=auto;html=1;endArrow=none;endFill=0;entryX=1;entryY=0.5;entryDx=0;entryDy=0;" parent="1" source="CVpWdhko3NHj1sSTFfam-47" target="CVpWdhko3NHj1sSTFfam-61" edge="1">
          <mxGeometry relative="1" as="geometry">
            <mxPoint x="275" y="140" as="targetPoint" />
            <Array as="points">
              <mxPoint x="275" y="140" />
              <mxPoint x="950" y="140" />
              <mxPoint x="950" y="355" />
            </Array>
          </mxGeometry>
        </mxCell>
        <mxCell id="uVXeTHRo1ylN-m3MdOiX-59" style="edgeStyle=orthogonalEdgeStyle;rounded=0;orthogonalLoop=1;jettySize=auto;html=1;entryX=0;entryY=0.5;entryDx=0;entryDy=0;endArrow=none;endFill=0;" parent="1" source="uVXeTHRo1ylN-m3MdOiX-7" target="CVpWdhko3NHj1sSTFfam-59" edge="1">
          <mxGeometry relative="1" as="geometry">
            <mxPoint x="540" y="310" as="targetPoint" />
            <Array as="points">
              <mxPoint x="526" y="240" />
              <mxPoint x="620" y="240" />
              <mxPoint x="620" y="555" />
            </Array>
          </mxGeometry>
        </mxCell>
        <mxCell id="uVXeTHRo1ylN-m3MdOiX-60" style="edgeStyle=orthogonalEdgeStyle;rounded=0;orthogonalLoop=1;jettySize=auto;html=1;entryX=0;entryY=0.5;entryDx=0;entryDy=0;endArrow=none;endFill=0;" parent="1" source="uVXeTHRo1ylN-m3MdOiX-6" target="CVpWdhko3NHj1sSTFfam-58" edge="1">
          <mxGeometry relative="1" as="geometry">
            <Array as="points">
              <mxPoint x="496" y="250" />
              <mxPoint x="610" y="250" />
              <mxPoint x="610" y="585" />
            </Array>
          </mxGeometry>
        </mxCell>
        <mxCell id="uVXeTHRo1ylN-m3MdOiX-62" style="edgeStyle=orthogonalEdgeStyle;rounded=0;orthogonalLoop=1;jettySize=auto;html=1;exitX=1;exitY=0.5;exitDx=0;exitDy=0;entryX=1;entryY=0.5;entryDx=0;entryDy=0;endArrow=none;endFill=0;" parent="1" source="CVpWdhko3NHj1sSTFfam-8" target="CVpWdhko3NHj1sSTFfam-57" edge="1">
          <mxGeometry relative="1" as="geometry">
            <Array as="points">
              <mxPoint x="600" y="535" />
              <mxPoint x="600" y="740" />
              <mxPoint x="940" y="740" />
              <mxPoint x="940" y="525" />
            </Array>
          </mxGeometry>
        </mxCell>
        <mxCell id="uVXeTHRo1ylN-m3MdOiX-63" style="edgeStyle=orthogonalEdgeStyle;rounded=0;orthogonalLoop=1;jettySize=auto;html=1;entryX=1;entryY=0.5;entryDx=0;entryDy=0;endArrow=none;endFill=0;" parent="1" source="CVpWdhko3NHj1sSTFfam-9" target="CVpWdhko3NHj1sSTFfam-56" edge="1">
          <mxGeometry relative="1" as="geometry">
            <Array as="points">
              <mxPoint x="590" y="565" />
              <mxPoint x="590" y="750" />
              <mxPoint x="950" y="750" />
              <mxPoint x="950" y="555" />
            </Array>
          </mxGeometry>
        </mxCell>
        <mxCell id="uVXeTHRo1ylN-m3MdOiX-64" style="edgeStyle=orthogonalEdgeStyle;rounded=0;orthogonalLoop=1;jettySize=auto;html=1;exitX=1;exitY=0.5;exitDx=0;exitDy=0;entryX=1;entryY=0.5;entryDx=0;entryDy=0;endArrow=none;endFill=0;" parent="1" source="CVpWdhko3NHj1sSTFfam-12" target="CVpWdhko3NHj1sSTFfam-55" edge="1">
          <mxGeometry relative="1" as="geometry">
            <Array as="points">
              <mxPoint x="580" y="655" />
              <mxPoint x="580" y="760" />
              <mxPoint x="960" y="760" />
              <mxPoint x="960" y="585" />
            </Array>
          </mxGeometry>
        </mxCell>
        <mxCell id="uVXeTHRo1ylN-m3MdOiX-65" style="edgeStyle=orthogonalEdgeStyle;rounded=0;orthogonalLoop=1;jettySize=auto;html=1;exitX=1;exitY=0.5;exitDx=0;exitDy=0;entryX=1;entryY=0.5;entryDx=0;entryDy=0;endArrow=none;endFill=0;" parent="1" source="CVpWdhko3NHj1sSTFfam-13" target="CVpWdhko3NHj1sSTFfam-54" edge="1">
          <mxGeometry relative="1" as="geometry">
            <Array as="points">
              <mxPoint x="570" y="685" />
              <mxPoint x="570" y="770" />
              <mxPoint x="970" y="770" />
              <mxPoint x="970" y="615" />
            </Array>
          </mxGeometry>
        </mxCell>
      </root>
    </mxGraphModel>
  </diagram>
</mxfile>
